<?xml version="1.0" encoding="UTF-8"?>
<svg xmlns="http://www.w3.org/2000/svg" viewBox="0 0 2651 1215" width="698" height="320" role="img" aria-label="Kairo · focus pomodoro cycles">
  <title>Kairo · stacked lockup</title>
  <g>
    <path d="M75 0L75-710L181-710L181-269L420-532L554-532L346-308L562 0L440 0L275-242L181-142L181 0L75 0ZM790 12Q706 12 657-26.500Q608-65 608-133L608-133Q608-201 649-240Q690-279 778-296L778-296L961-331Q961-454 847-454L847-454Q748-454 727-365L727-365L617-372Q632-452 692.500-498Q753-544 847-544L847-544Q954-544 1010.500-486.500Q1067-429 1067-325L1067-325L1067-118Q1067-99 1074-91.500Q1081-84 1096-84L1096-84L1115-84L1115 0Q1105 3 1076 3L1076 3Q1029 3 1003-17Q977-37 970-82L970-82Q950-40 901-14Q852 12 790 12L790 12ZM808-72Q878-72 919.500-112Q961-152 961-217L961-217L961-251L806-221Q759-212 738.500-193Q718-174 718-143L718-143Q718-109 741.500-90.500Q765-72 808-72L808-72ZM1178 0L1178-532L1284-532L1284 0L1178 0ZM1176-609L1176-715L1287-715L1287-609L1176-609ZM1389 0L1389-532L1486-532L1489-431Q1504-483 1535-507.500Q1566-532 1616-532L1616-532L1667-532L1667-437L1616-437Q1555-437 1525-407Q1495-377 1495-314L1495-314L1495 0L1389 0Z" fill="#17171C" transform="translate(60 810)"></path>
    <path d="M 562.50 91.22 A 345.00 345.00 0 1 1 91.22 217.50" fill="none" stroke="#17171C" stroke-width="90" stroke-linecap="round" transform="translate(1811 65)"></path>
  </g>
  <path d="M86 0L86-710L547-710L547-611L194-611L194-395L529-395L529-299L194-299L194 0L86 0ZM1292 16Q1190 16 1115.500-28.500Q1041-73 1001-156.500Q961-240 961-354L961-354Q961-468 1001-552Q1041-636 1115.500-681Q1190-726 1292-726L1292-726Q1395-726 1470-681Q1545-636 1584.500-552Q1624-468 1624-354L1624-354Q1624-240 1584.500-156.500Q1545-73 1470-28.500Q1395 16 1292 16L1292 16ZM1292-83Q1396-83 1454-154.500Q1512-226 1512-354L1512-354Q1512-482 1453.500-554.500Q1395-627 1292-627L1292-627Q1190-627 1131.500-554.500Q1073-482 1073-354L1073-354Q1073-226 1131.500-154.500Q1190-83 1292-83L1292-83ZM2361 16Q2265 16 2191.500-28.500Q2118-73 2077.500-156.500Q2037-240 2037-354L2037-354Q2037-467 2077.500-551Q2118-635 2191.500-680.500Q2265-726 2362-726L2362-726Q2490-726 2564.500-661.500Q2639-597 2663-477L2663-477L2549-471Q2534-546 2487.500-586.500Q2441-627 2362-627L2362-627Q2298-627 2250-594Q2202-561 2175.500-499.500Q2149-438 2149-354L2149-354Q2149-270 2175.500-209Q2202-148 2250-115.500Q2298-83 2361-83L2361-83Q2445-83 2493-127.500Q2541-172 2554-254L2554-254L2668-248Q2647-124 2568.500-54Q2490 16 2361 16L2361 16ZM3376 16Q3292 16 3229.500-16.500Q3167-49 3133.500-109.500Q3100-170 3100-251L3100-251L3100-711L3208-711L3208-251Q3208-170 3252-126.500Q3296-83 3376-83L3376-83Q3456-83 3500-126.500Q3544-170 3544-251L3544-251L3544-711L3652-711L3652-251Q3652-170 3618.500-109.500Q3585-49 3522.500-16.500Q3460 16 3376 16L3376 16ZM4387 16Q4303 16 4240.500-14.500Q4178-45 4141.500-100.500Q4105-156 4099-229L4099-229L4210-236Q4220-161 4265-121.500Q4310-82 4389-82L4389-82Q4459-82 4496.500-108Q4534-134 4534-184L4534-184Q4534-216 4519-238.500Q4504-261 4463.500-280.500Q4423-300 4346-319L4346-319Q4259-340 4209-365.500Q4159-391 4136.500-427.500Q4114-464 4114-520L4114-520Q4114-581 4143.500-627.500Q4173-674 4229-700Q4285-726 4360-726L4360-726Q4478-726 4548.500-662.500Q4619-599 4631-495L4631-495L4521-489Q4512-553 4470.500-590.500Q4429-628 4358-628L4358-628Q4297-628 4261-599.500Q4225-571 4225-524L4225-524Q4225-492 4239.500-472.500Q4254-453 4290.500-438Q4327-423 4398-406L4398-406Q4532-375 4588.500-323Q4645-271 4645-190L4645-190Q4645-127 4612.500-80.500Q4580-34 4521.500-9Q4463 16 4387 16L4387 16ZM5628-240L5628-366L5758-366L5758-240L5628-240ZM6771 0L6771-710L7036-710Q7157-710 7225.500-651.500Q7294-593 7294-489L7294-489Q7294-385 7225.500-325.500Q7157-266 7036-266L7036-266L6879-266L6879 0L6771 0ZM7033-364Q7106-364 7144-395.500Q7182-427 7182-489L7182-489Q7182-550 7144.500-580.500Q7107-611 7033-611L7033-611L6879-611L6879-364L7033-364ZM8039 16Q7937 16 7862.500-28.500Q7788-73 7748-156.500Q7708-240 7708-354L7708-354Q7708-468 7748-552Q7788-636 7862.500-681Q7937-726 8039-726L8039-726Q8142-726 8217-681Q8292-636 8331.500-552Q8371-468 8371-354L8371-354Q8371-240 8331.500-156.500Q8292-73 8217-28.500Q8142 16 8039 16L8039 16ZM8039-83Q8143-83 8201-154.500Q8259-226 8259-354L8259-354Q8259-482 8200.500-554.500Q8142-627 8039-627L8039-627Q7937-627 7878.500-554.500Q7820-482 7820-354L7820-354Q7820-226 7878.500-154.500Q7937-83 8039-83L8039-83ZM8824 0L8824-710L8972-710L9183-127L9394-710L9542-710L9542 0L9434 0L9434-520L9243-1L9123-1L8932-520L8932 0L8824 0ZM10325 16Q10223 16 10148.500-28.500Q10074-73 10034-156.500Q9994-240 9994-354L9994-354Q9994-468 10034-552Q10074-636 10148.500-681Q10223-726 10325-726L10325-726Q10428-726 10503-681Q10578-636 10617.500-552Q10657-468 10657-354L10657-354Q10657-240 10617.500-156.500Q10578-73 10503-28.500Q10428 16 10325 16L10325 16ZM10325-83Q10429-83 10487-154.500Q10545-226 10545-354L10545-354Q10545-482 10486.500-554.500Q10428-627 10325-627L10325-627Q10223-627 10164.500-554.500Q10106-482 10106-354L10106-354Q10106-226 10164.500-154.500Q10223-83 10325-83L10325-83ZM11110 0L11110-710L11338-710Q11505-710 11595-617.500Q11685-525 11685-354L11685-354Q11685-184 11596.500-92Q11508 0 11344 0L11344 0L11110 0ZM11338-99Q11573-99 11573-354L11573-354Q11573-484 11514.500-547.500Q11456-611 11338-611L11338-611L11218-611L11218-99L11338-99ZM12428 16Q12326 16 12251.500-28.500Q12177-73 12137-156.500Q12097-240 12097-354L12097-354Q12097-468 12137-552Q12177-636 12251.500-681Q12326-726 12428-726L12428-726Q12531-726 12606-681Q12681-636 12720.500-552Q12760-468 12760-354L12760-354Q12760-240 12720.500-156.500Q12681-73 12606-28.500Q12531 16 12428 16L12428 16ZM12428-83Q12532-83 12590-154.500Q12648-226 12648-354L12648-354Q12648-482 12589.500-554.500Q12531-627 12428-627L12428-627Q12326-627 12267.500-554.500Q12209-482 12209-354L12209-354Q12209-226 12267.500-154.500Q12326-83 12428-83L12428-83ZM13213 0L13213-710L13496-710Q13609-710 13675.500-652Q13742-594 13742-496L13742-496Q13742-436 13707.500-391Q13673-346 13621-330L13621-330Q13720-315 13730-207L13730-207L13749 0L13640 0L13623-193Q13620-237 13593.500-257Q13567-277 13509-277L13509-277L13321-277L13321 0L13213 0ZM13498-376Q13559-376 13594.500-406.500Q13630-437 13630-493L13630-493Q13630-550 13593.500-580.500Q13557-611 13489-611L13489-611L13321-611L13321-376L13498-376ZM14504 16Q14402 16 14327.500-28.500Q14253-73 14213-156.500Q14173-240 14173-354L14173-354Q14173-468 14213-552Q14253-636 14327.500-681Q14402-726 14504-726L14504-726Q14607-726 14682-681Q14757-636 14796.500-552Q14836-468 14836-354L14836-354Q14836-240 14796.500-156.500Q14757-73 14682-28.500Q14607 16 14504 16L14504 16ZM14504-83Q14608-83 14666-154.500Q14724-226 14724-354L14724-354Q14724-482 14665.500-554.500Q14607-627 14504-627L14504-627Q14402-627 14343.500-554.500Q14285-482 14285-354L14285-354Q14285-226 14343.500-154.500Q14402-83 14504-83L14504-83ZM15810-240L15810-366L15940-366L15940-240L15810-240ZM17237 16Q17141 16 17067.500-28.500Q16994-73 16953.500-156.500Q16913-240 16913-354L16913-354Q16913-467 16953.500-551Q16994-635 17067.500-680.500Q17141-726 17238-726L17238-726Q17366-726 17440.500-661.500Q17515-597 17539-477L17539-477L17425-471Q17410-546 17363.500-586.500Q17317-627 17238-627L17238-627Q17174-627 17126-594Q17078-561 17051.500-499.500Q17025-438 17025-354L17025-354Q17025-270 17051.500-209Q17078-148 17126-115.500Q17174-83 17237-83L17237-83Q17321-83 17369-127.500Q17417-172 17430-254L17430-254L17544-248Q17523-124 17444.500-54Q17366 16 17237 16L17237 16ZM18177 0L18177-285L17927-710L18051-710L18231-393L18410-710L18534-710L18285-285L18285 0L18177 0ZM19247 16Q19151 16 19077.500-28.500Q19004-73 18963.500-156.500Q18923-240 18923-354L18923-354Q18923-467 18963.500-551Q19004-635 19077.500-680.500Q19151-726 19248-726L19248-726Q19376-726 19450.500-661.500Q19525-597 19549-477L19549-477L19435-471Q19420-546 19373.500-586.500Q19327-627 19248-627L19248-627Q19184-627 19136-594Q19088-561 19061.500-499.500Q19035-438 19035-354L19035-354Q19035-270 19061.500-209Q19088-148 19136-115.500Q19184-83 19247-83L19247-83Q19331-83 19379-127.500Q19427-172 19440-254L19440-254L19554-248Q19533-124 19454.500-54Q19376 16 19247 16L19247 16ZM20001 0L20001-710L20109-710L20109-99L20455-99L20455 0L20001 0ZM20904 0L20904-710L21366-710L21366-611L21012-611L21012-404L21354-404L21354-308L21012-308L21012-99L21374-99L21374 0L20904 0ZM22091 16Q22007 16 21944.500-14.500Q21882-45 21845.500-100.500Q21809-156 21803-229L21803-229L21914-236Q21924-161 21969-121.500Q22014-82 22093-82L22093-82Q22163-82 22200.500-108Q22238-134 22238-184L22238-184Q22238-216 22223-238.500Q22208-261 22167.500-280.500Q22127-300 22050-319L22050-319Q21963-340 21913-365.500Q21863-391 21840.500-427.500Q21818-464 21818-520L21818-520Q21818-581 21847.500-627.500Q21877-674 21933-700Q21989-726 22064-726L22064-726Q22182-726 22252.500-662.500Q22323-599 22335-495L22335-495L22225-489Q22216-553 22174.500-590.500Q22133-628 22062-628L22062-628Q22001-628 21965-599.500Q21929-571 21929-524L21929-524Q21929-492 21943.500-472.500Q21958-453 21994.500-438Q22031-423 22102-406L22102-406Q22236-375 22292.500-323Q22349-271 22349-190L22349-190Q22349-127 22316.500-80.500Q22284-34 22225.500-9Q22167 16 22091 16L22091 16Z" fill="#17171C" opacity="0.55" transform="translate(538.4399999999999 1114.8828475786654) scale(0.0702575318009373)"></path>
</svg>