<?xml version="1.0" encoding="UTF-8"?>
<svg xmlns="http://www.w3.org/2000/svg" viewBox="0 0 2712 945" width="574" height="200" role="img" aria-label="Kairo">
  <title>Kairo · wordmark · bold</title>
  <path d="M70 0L70-710L198-710L198-293L417-534L575-534L366-312L582 0L438 0L282-236L198-147L198 0L70 0ZM810 12Q725 12 674.500-26.500Q624-65 624-134L624-134Q624-202 666.500-241.500Q709-281 798-298L798-298L975-333Q975-389 949-418Q923-447 873-447L873-447Q782-447 764-364L764-364L633-370Q649-454 711-500Q773-546 873-546L873-546Q986-546 1044.500-488.500Q1103-431 1103-324L1103-324L1103-130Q1103-109 1110-101Q1117-93 1133-93L1133-93L1150-93L1150 0Q1134 4 1104 4L1104 4Q1057 4 1028.500-16Q1000-36 992-83L992-83Q972-40 923.500-14Q875 12 810 12L810 12ZM836-81Q899-81 937-118Q975-155 975-216L975-216L975-246L837-218Q795-210 776-192Q757-174 757-146L757-146Q757-115 777.500-98Q798-81 836-81L836-81ZM1206 0L1206-534L1334-534L1334 0L1206 0ZM1204-605L1204-719L1337-719L1337-605L1204-605ZM1430 0L1430-534L1550-534L1553-431Q1569-484 1600.500-509Q1632-534 1681-534L1681-534L1730-534L1730-424L1680-424Q1618-424 1588-396.500Q1558-369 1558-308L1558-308L1558 0L1430 0Z" fill="#17171C" transform="translate(60 810)"></path>
  <path d="M 557.75 99.45 A 335.50 335.50 0 1 1 99.45 222.25" fill="none" stroke="#17171C" stroke-width="109" stroke-linecap="round" transform="translate(1872 65)"></path>
</svg>