<?xml version="1.0" encoding="UTF-8"?>
<svg xmlns="http://www.w3.org/2000/svg" viewBox="0 0 2548 945" width="539" height="200" role="img" aria-label="Kairo">
  <title>Kairo · wordmark · light</title>
  <path d="M82 0L82-710L148-710L148-228L435-530L523-530L305-304L536 0L456 0L261-260L148-144L148 0L82 0ZM762 12Q681 12 633.500-26.500Q586-65 586-131L586-131Q586-195 627-233.500Q668-272 751-288L751-288L947-325Q947-403 913-441Q879-479 810-479L810-479Q690-479 665-368L665-368L595-374Q609-452 666-497Q723-542 810-542L810-542Q908-542 960.500-486Q1013-430 1013-326L1013-326L1013-105Q1013-79 1021.500-69Q1030-59 1049-59L1049-59L1065-59L1065 0Q1053 2 1038 2L1038 2Q994 2 972.500-19.500Q951-41 948-92L948-92Q927-46 876-17Q825 12 762 12L762 12ZM768-47Q821-47 862-68.500Q903-90 925-128Q947-166 947-213L947-213L947-266L765-232Q708-222 681.500-198.500Q655-175 655-137L655-137Q655-94 684.500-70.500Q714-47 768-47L768-47ZM1137 0L1137-530L1203-530L1203 0L1137 0ZM1135-618L1135-707L1205-707L1205-618L1135-618ZM1321 0L1321-530L1378-530L1381-424Q1397-478 1429.500-504Q1462-530 1514-530L1514-530L1560-530L1560-466L1512-466Q1453-466 1420-428Q1387-390 1387-323L1387-323L1387 0L1321 0Z" fill="#17171C" transform="translate(60 810)"></path>
  <path d="M 570.25 77.80 A 360.50 360.50 0 1 1 77.80 209.75" fill="none" stroke="#17171C" stroke-width="59" stroke-linecap="round" transform="translate(1708 65)"></path>
</svg>