<?xml version="1.0" encoding="UTF-8"?>
<svg xmlns="http://www.w3.org/2000/svg" viewBox="0 0 2591 945" width="548" height="200" role="img" aria-label="Kairo">
  <title>Kairo · wordmark · regular</title>
  <path d="M80 0L80-710L164-710L164-245L422-530L534-530L325-305L543 0L441 0L268-248L164-138L164 0L80 0ZM771 12Q688 12 640-26Q592-64 592-132L592-132Q592-200 632-239Q672-278 759-294L759-294L947-329Q947-462 821-462L821-462Q715-462 690-367L690-367L601-374Q616-451 674.500-496.500Q733-542 821-542L821-542Q922-542 976.500-485Q1031-428 1031-326L1031-326L1031-107Q1031-89 1037.500-81.500Q1044-74 1059-74L1059-74L1080-74L1080 0Q1068 2 1048 2L1048 2Q1000 2 976.500-18Q953-38 948-82L948-82Q928-41 878.500-14.500Q829 12 771 12L771 12ZM779-62Q857-62 902-106Q947-150 947-218L947-218L947-256L775-224Q723-215 701.500-194.500Q680-174 680-140L680-140Q680-103 706-82.500Q732-62 779-62L779-62ZM1150 0L1150-530L1234-530L1234 0L1150 0ZM1148-613L1148-711L1236-711L1236-613L1148-613ZM1349 0L1349-530L1423-530L1426-432Q1454-530 1552-530L1552-530L1604-530L1604-450L1553-450Q1433-450 1433-320L1433-320L1433 0L1349 0Z" fill="#17171C" transform="translate(60 810)"></path>
  <path d="M 566.50 84.29 A 353.00 353.00 0 1 1 84.29 213.50" fill="none" stroke="#17171C" stroke-width="74" stroke-linecap="round" transform="translate(1751 65)"></path>
</svg>