<?xml version="1.0" encoding="UTF-8"?>
<svg xmlns="http://www.w3.org/2000/svg" viewBox="0 0 2651 945" width="561" height="200" role="img" aria-label="Kairo">
  <title>Kairo · wordmark · medium</title>
  <path d="M75 0L75-710L181-710L181-269L420-532L554-532L346-308L562 0L440 0L275-242L181-142L181 0L75 0ZM790 12Q706 12 657-26.500Q608-65 608-133L608-133Q608-201 649-240Q690-279 778-296L778-296L961-331Q961-454 847-454L847-454Q748-454 727-365L727-365L617-372Q632-452 692.500-498Q753-544 847-544L847-544Q954-544 1010.500-486.500Q1067-429 1067-325L1067-325L1067-118Q1067-99 1074-91.500Q1081-84 1096-84L1096-84L1115-84L1115 0Q1105 3 1076 3L1076 3Q1029 3 1003-17Q977-37 970-82L970-82Q950-40 901-14Q852 12 790 12L790 12ZM808-72Q878-72 919.500-112Q961-152 961-217L961-217L961-251L806-221Q759-212 738.500-193Q718-174 718-143L718-143Q718-109 741.500-90.500Q765-72 808-72L808-72ZM1178 0L1178-532L1284-532L1284 0L1178 0ZM1176-609L1176-715L1287-715L1287-609L1176-609ZM1389 0L1389-532L1486-532L1489-431Q1504-483 1535-507.500Q1566-532 1616-532L1616-532L1667-532L1667-437L1616-437Q1555-437 1525-407Q1495-377 1495-314L1495-314L1495 0L1389 0Z" fill="#17171C" transform="translate(60 810)"></path>
  <path d="M 390.00 45.00 A 345.00 345.00 0 0 1 735.00 390.00" fill="none" stroke="#17171C" stroke-width="90" stroke-linecap="round" transform="translate(1811 65)"></path>
</svg>